<?xml version="1.0" encoding="UTF-8" standalone="no"?>
<!-- Generator: Adobe Illustrator 16.0.0, SVG Export Plug-In . SVG Version: 6.00 Build 0)  -->

<svg
        version="1.1"
        id="Capa_1"
        x="0px"
        y="0px"
        width="1024"
        height="512"
        viewBox="0 0 1024 512"
        xml:space="preserve"
        xmlns:inkscape="http://www.inkscape.org/namespaces/inkscape"
        xmlns:sodipodi="http://sodipodi.sourceforge.net/DTD/sodipodi-0.dtd"
        inkscape:export-xdpi="18.75"
        inkscape:export-ydpi="18.75"
        inkscape:version="1.4 (86a8ad7, 2024-10-11)"
        sodipodi:docname="icones.svg"
        inkscape:export-filename="icones.png"
        xmlns="http://www.w3.org/2000/svg"><defs
   id="defs16"><inkscape:path-effect
     effect="fillet_chamfer"
     id="path-effect17"
     is_visible="true"
     lpeversion="1"
     nodesatellites_param="F,0,0,1,0,0,0,1 @ F,0,0,1,0,0,0,1 @ F,0,0,1,0,0,0,1 @ F,0,0,1,0,0,0,1"
     radius="0"
     unit="px"
     method="auto"
     mode="F"
     chamfer_steps="1"
     flexible="false"
     use_knot_distance="true"
     apply_no_radius="true"
     apply_with_radius="true"
     only_selected="false"
     hide_knots="false" /></defs>
    <sodipodi:namedview
            id="namedview16"
            pagecolor="#505050"
            bordercolor="#eeeeee"
            borderopacity="1"
            inkscape:showpageshadow="0"
            inkscape:pageopacity="0"
            inkscape:pagecheckerboard="0"
            inkscape:deskcolor="#505050"
            showguides="false"
            inkscape:zoom="1.6117063"
            inkscape:cx="494.19674"
            inkscape:cy="256.56039"
            inkscape:window-width="2560"
            inkscape:window-height="1369"
            inkscape:window-x="1912"
            inkscape:window-y="-8"
            inkscape:window-maximized="1"
            inkscape:current-layer="Capa_1"
            inkscape:export-bgcolor="#ffffff00"/>
    <g
            id="id_jouer_nouveau_tour"
            inkscape:label="jouer_nouveau_tour"
            transform="matrix(0.98084293,0,0,0.9677338,14.712634,11.68158)">
	<path
            d="M 1024,192 H 832 l 72,-72 C 868,84 819,64 768,64 c -51,0 -100,20 -136,56 -36,36 -56,85 -56,136 0,51 20,100 56,136 36,36 85,56 136,56 51,0 100,-20 136,-56 3,-3 6,-6 9,-9 l 48,42 C 914,478 845,512 768,512 627,512 512,397 512,256 512,115 627,0 768,0 839,0 903,29 949,75 l 75,-75 z"
            id="chemin_jouer_nouveau_tour"
            inkscape:label="chemin_jouer_nouveau_tour"
            style="display:inline;fill:#ffffff;fill-opacity:1;stroke:#003400;stroke-width:10;stroke-dasharray:none;stroke-opacity:1"/>
</g>
    <g
            inkscape:groupmode="layer"
            id="id_deplacer"
            inkscape:label="deplacer"
            inkscape:highlight-color="#ababab"><path
     d="m 276,110 h -29 l -1,271 h -9 v -95 c 0,-6 -5,-10 -10,-10 H 15 c -6,0 -10,5 -10,10 v 212 c 0,6 5,10 10,10 H 227 c 6,0 10,-5 10,-10 v -96 h 28 l 1,-271 h 10 v 96 c 0,6 5,10 10,10 h 212 c 6,0 10,-5 10,-10 V 15 c 0,-6 -5,-10 -10,-10 H 285 c -6,0 -10,5 -10,10 z M 217,381 V 296 H 25 V 487 H 216 V 401 H 116 c -6,0 -10,-5 -10,-10 0,-6 5,-10 10,-10 z M 296,129 V 215 H 487 V 24 H 296 v 85 h 101 l -34,-29 c -4,-4 -5,-10 -1,-14 4,-4 10,-5 14,-1 l 55,47 c 1,1 2,2 2,3 v 0 0 c 1,1 1,3 1,5 v 0 0 0 0 0 0 c 0,2 -1,4 -1,5 v 0 0 c -1,1 -1,2 -2,3 l -55,47 c -4,4 -11,3 -14,-1 -4,-4 -3,-11 1,-14 l 34,-29 z"
     id="id_chemin_deplacer"
     style="clip-rule:evenodd;display:inline;fill:#ffffff;fill-opacity:1;fill-rule:evenodd;stroke:#003400;stroke-width:9.80843;stroke-linejoin:round;stroke-miterlimit:2;stroke-dasharray:none;stroke-opacity:1"
     inkscape:label="chemin_deplacer"
     sodipodi:nodetypes="ccccssssssssccccsssssssscccccccssccccccccccsccscsscccccsscscccccc" /></g>















</svg>
