<?xml version="1.0" ?><!DOCTYPE svg  PUBLIC '-//W3C//DTD SVG 1.1//EN'
        'http://www.w3.org/Graphics/SVG/1.1/DTD/svg11.dtd'>
<svg xmlns="http://www.w3.org/2000/svg"
     width="100%" height="100%" viewBox="0 0 512 512" version="1.1" xml:space="preserve"
     style="fill-rule:evenodd;clip-rule:evenodd;stroke-linejoin:round;stroke-miterlimit:2;"><g transform="matrix(1,0,0,1,-2248,-1686)"><g id="Icons"><path d="M2523.52,1904.41L2484.48,1904.41L2484.48,1864.35C2484.48,1858.83 2480,1854.35 2474.48,1854.35L2264,1854.35C2258.48,1854.35 2254,1858.83 2254,1864.35L2254,2074.83C2254,2080.36 2258.48,2084.83 2264,2084.83L2474.48,2084.83C2480,2084.83 2484.48,2080.36 2484.48,2074.83L2484.48,1924.41L2523.52,1924.41L2523.52,2019.65C2523.52,2025.17 2528,2029.65 2533.52,2029.65L2744,2029.65C2749.52,2029.65 2754,2025.17 2754,2019.65L2754,1809.17C2754,1803.64 2749.52,1799.17 2744,1799.17L2533.52,1799.17C2528,1799.17 2523.52,1803.64 2523.52,1809.17L2523.52,1904.41ZM2464.48,1904.41L2464.48,1874.35L2274,1874.35C2274,1874.35 2274,2064.83 2274,2064.83C2309.47,2064.83 2429.01,2064.83 2464.48,2064.83L2464.48,1924.41L2336.84,1924.41C2331.32,1924.41 2326.84,1919.93 2326.84,1914.41C2326.84,1908.89 2331.32,1904.41 2336.84,1904.41L2464.48,1904.41ZM2543.52,1924.41L2543.52,2009.65C2543.52,2009.65 2734,2009.65 2734,2009.65L2734,1819.17L2543.52,1819.17L2543.52,1904.41L2644.23,1904.41L2609.94,1874.88C2605.76,1871.28 2605.29,1864.96 2608.89,1860.78C2612.49,1856.6 2618.81,1856.12 2622.99,1859.73L2677.69,1906.83C2678.52,1907.55 2679.22,1908.39 2679.77,1909.31L2679.78,1909.33L2679.79,1909.35C2680.64,1910.8 2681.14,1912.48 2681.16,1914.27L2681.16,1914.28L2681.16,1914.34C2681.16,1914.36 2681.16,1914.38 2681.16,1914.41L2681.16,1914.48L2681.16,1914.54L2681.16,1914.55C2681.14,1916.34 2680.64,1918.02 2679.79,1919.46L2679.78,1919.49L2679.77,1919.5C2679.22,1920.42 2678.52,1921.27 2677.69,1921.98L2622.99,1969.09C2618.81,1972.69 2612.49,1972.22 2608.89,1968.03C2605.29,1963.85 2605.76,1957.53 2609.94,1953.93L2644.23,1924.41L2543.52,1924.41Z"/></g></g></svg>