<?xml version="1.0" ?>
<svg style="enable-background:new 0 0 32 32;" version="1.1" viewBox="0 0 32 32"
     xml:space="preserve" xmlns="http://www.w3.org/2000/svg"><style type="text/css">
	.st0{fill:#B9F3F8;}
	.st1{fill:#55C1FA;}
	.st2{fill:#FBC34E;}
	.st3{opacity:0.05;}
	.st4{fill:#FFFFFF;}
	.st5{fill:#7A442A;}
	.st6{fill:#C77C58;}
	.st7{fill:#E4EDF2;}
	.st8{fill:#F25949;}
	.st9{fill:#FA9B55;}
	.st10{fill:#E5A533;}
	.st11{fill:#6FA7AB;}
	.st12{fill:#20A56C;}
	.st13{fill:#F2C09E;}
	.st14{fill:#F4E8D0;}
	.st15{fill:#F2AB38;}
	.st16{fill:#393B3D;}
	.st17{fill:#ACE4E5;}
	.st18{fill:#659899;}
	.st19{fill:#E3FAFC;}
	.st20{fill:#DDF1F2;}
	.st21{fill:#16F293;}
	.st22{fill:#5C3320;}
	.st23{fill:#AD410D;}
	.st24{fill:#8B9CA5;}
	.st25{fill:#B26C50;}
	.st26{fill:#DAE1E5;}
	.st27{fill:#425158;}
	.st28{fill:#829299;}
	.st29{fill:#A5795C;}
	.st30{fill:#7A7468;}
	.st31{fill:#7B3ABF;}
	.st32{fill:#B564FF;}
	.st33{fill:#2B617D;}
</style>
    <g id="Magnifier"/>
    <g id="Gear"/>
    <g id="Home"/>
    <g id="Shield"/>
    <g id="Star"/>
    <g id="Flash"/>
    <g id="Heart"/>
    <g id="Hearts"/>
    <g id="Shopping_Bag"/>
    <g id="Token"/>
    <g id="Warning"/>
    <g id="Warning_B"/>
    <g id="Chat"/>
    <g id="Diamond"/>
    <g id="Hanger"/>
    <g id="Warning_C"/>
    <g id="Potion"/>
    <g id="Hourglass"/>
    <g id="Trophy"/>
    <g id="Bomb"/>
    <g id="Gem"/>
    <g id="Spell_Book"/>
    <g id="User"/>
    <g id="Users"/>
    <g id="Treasure_Chest"/>
    <g id="Treasure_Chest_Open"/>
    <g id="Sack"/>
    <g id="Fishing_Pin"/>
    <g id="Sword"/>
    <g id="Sword_And_Shield"/>
    <g id="Backpack"/>
    <g id="Key"/>
    <g id="Meat"/>
    <g id="Skull"/>
    <g id="Store"/>
    <g id="Helmet"/>
    <g id="Anvil"/>
    <g id="Axe"/>
    <g id="Spear"><g><path class="st6" d="M19.257,9.218L2.73,25.745C2.26,26.216,2,26.842,2,27.508s0.26,1.291,0.73,1.762S3.826,30,4.492,30    s1.292-0.26,1.763-0.73l16.527-16.527L19.257,9.218z"/><path
            class="st7"
            d="M29.707,2.293c-0.271-0.272-0.678-0.364-1.039-0.236l-4.34,1.526c-0.18,0.089-0.343,0.211-0.479,0.358    l-2.95,4.09l3.069,3.069l4.09-2.95c0.155-0.128,0.276-0.294,0.358-0.479l1.526-4.34C30.071,2.969,29.979,2.564,29.707,2.293z"/><path
            class="st2"
            d="M20.899,8.032l-0.576-0.576c-0.391-0.391-1.023-0.391-1.414,0s-0.391,1.023,0,1.414l0.348,0.348l3.524,3.524    l0.348,0.348c0.195,0.195,0.451,0.293,0.707,0.293s0.512-0.098,0.707-0.293c0.391-0.391,0.391-1.023,0-1.414l-0.576-0.576    L20.899,8.032z"/></g></g>
    <g id="Food"/>
    <g id="Bow"/>
    <g id="Scroll"/>
    <g id="Armor"/>
    <g id="Hat"/>
    <g id="Wand"/>
    <g id="Map"/>
    <g id="Mushroom"/>
    <g id="Feather"/>
    <g id="Wings"/>
    <g id="Fish"/></svg>